<svg id="Layer_1" data-name="Layer 1" xmlns="http://www.w3.org/2000/svg" viewBox="0 0 247.73 370"><defs><style>.cls-1{fill:none;stroke:#000;stroke-miterlimit:10;opacity:0.1;}.cls-2{fill:#f55;}.cls-3{fill:#fff;}</style></defs><title>SPill</title><path class="cls-1" d="M917.5,423.5" transform="translate(-752.5 -293.5)"/><path class="cls-2" d="M875.5,293.5s123.83,1,123.83,130H917.5s43.24,13,65.62,55,16.38,61,16.38,61-5,124-124,124-123-124-123-124v-6h83s-83-28-83-117S830.5,293.5,875.5,293.5Z" transform="translate(-752.5 -293.5)"/><path class="cls-3" d="M917.5,415.5v125s-1,42-42,42-41-42-41-42v-125s3-41,41-41S917.5,415.5,917.5,415.5Z" transform="translate(-752.5 -293.5)"/></svg>